<svg class="marks" width="249" height="246" viewBox="0 0 249 246" version="1.1"
xmlns="http://www.w3.org/2000/svg"
xmlns:xlink="http://www.w3.org/1999/xlink"><rect width="249" height="246"
style="fill: #f9f9f9;"></rect><g transform="translate(76,5)"><g
class="mark-group role-frame root"><g transform="translate(0,0)"><path
class="background" d="M0.5,0.5h168v200h-168Z" style="fill: none; stroke:
#ddd;"></path><g><g class="mark-group role-axis"><g
transform="translate(0.5,0.5)"><path class="background" d="M0,0h0v0h0Z"
style="pointer-events: none; fill: none;"></path><g><g class="mark-rule
role-axis-grid" style="pointer-events: none;"><line transform="translate(0,200)"
x2="168" y2="0" style="fill: none; stroke: #ddd; stroke-width: 0.2; opacity:
1;"></line><line transform="translate(0,169)" x2="168" y2="0" style="fill: none;
stroke: #ddd; stroke-width: 0.2; opacity: 1;"></line><line
transform="translate(0,138)" x2="168" y2="0" style="fill: none; stroke: #ddd;
stroke-width: 0.2; opacity: 1;"></line><line transform="translate(0,108)"
x2="168" y2="0" style="fill: none; stroke: #ddd; stroke-width: 0.2; opacity:
1;"></line><line transform="translate(0,77)" x2="168" y2="0" style="fill: none;
stroke: #ddd; stroke-width: 0.2; opacity: 1;"></line><line
transform="translate(0,46)" x2="168" y2="0" style="fill: none; stroke: #ddd;
stroke-width: 0.2; opacity: 1;"></line><line transform="translate(0,15)"
x2="168" y2="0" style="fill: none; stroke: #ddd; stroke-width: 0.2; opacity:
1;"></line></g></g></g></g><g class="mark-rect role-mark marks"><path
d="M1.0499999999999972,13.106261538461524h18.900000000000002v186.89373846153848h-18.900000000000002Z"
style="fill: #4c78a8;"></path><path
d="M22.049999999999997,14.351200000000006h18.900000000000002v185.6488h-18.900000000000002Z"
style="fill: #4c78a8;"></path><path
d="M43.05,11.665030769230782h18.900000000000002v188.33496923076922h-18.900000000000002Z"
style="fill: #4c78a8;"></path><path
d="M64.05,12.335246153846157h18.900000000000002v187.66475384615384h-18.900000000000002Z"
style="fill: #4c78a8;"></path><path
d="M85.05,11.921723076923087h18.900000000000002v188.0782769230769h-18.900000000000002Z"
style="fill: #4c78a8;"></path><path
d="M106.05,10.804630769230783h18.900000000000002v189.19536923076922h-18.900000000000002Z"
style="fill: #4c78a8;"></path><path
d="M127.05,8.468553846153839h18.900000000000002v191.53144615384616h-18.900000000000002Z"
style="fill: #4c78a8;"></path><path
d="M148.05,7.409292307692311h18.900000000000002v192.5907076923077h-18.900000000000002Z"
style="fill: #4c78a8;"></path></g><g class="mark-group role-axis"><g
transform="translate(0.5,200.5)"><path class="background" d="M0,0h0v0h0Z"
style="pointer-events: none; fill: none;"></path><g><g class="mark-rule
role-axis-tick" style="pointer-events: none;"><line transform="translate(9,0)"
x2="0" y2="10" style="fill: none; stroke: #979797; stroke-width: 0.2; opacity:
1;"></line><line transform="translate(31,0)" x2="0" y2="10" style="fill: none;
stroke: #979797; stroke-width: 0.2; opacity: 1;"></line><line
transform="translate(52,0)" x2="0" y2="10" style="fill: none; stroke: #979797;
stroke-width: 0.2; opacity: 1;"></line><line transform="translate(73,0)" x2="0"
y2="10" style="fill: none; stroke: #979797; stroke-width: 0.2; opacity:
1;"></line><line transform="translate(94,0)" x2="0" y2="10" style="fill: none;
stroke: #979797; stroke-width: 0.2; opacity: 1;"></line><line
transform="translate(115,0)" x2="0" y2="10" style="fill: none; stroke: #979797;
stroke-width: 0.2; opacity: 1;"></line><line transform="translate(136,0)" x2="0"
y2="10" style="fill: none; stroke: #979797; stroke-width: 0.2; opacity:
1;"></line><line transform="translate(157,0)" x2="0" y2="10" style="fill: none;
stroke: #979797; stroke-width: 0.2; opacity: 1;"></line></g><g class="mark-text
role-axis-label" style="pointer-events: none;"><text text-anchor="end"
transform="translate(9.499999999999998,12) rotate(270) translate(0,3)"
style="font-family: sans-serif; font-size: 10px; fill: #979797; opacity:
1;">1</text><text text-anchor="end" transform="translate(30.5,12) rotate(270)
translate(0,3)" style="font-family: sans-serif; font-size: 10px; fill: #979797;
opacity: 1;">2</text><text text-anchor="end" transform="translate(51.5,12)
rotate(270) translate(0,3)" style="font-family: sans-serif; font-size: 10px;
fill: #979797; opacity: 1;">3</text><text text-anchor="end"
transform="translate(72.5,12) rotate(270) translate(0,3)" style="font-family:
sans-serif; font-size: 10px; fill: #979797; opacity: 1;">4</text><text
text-anchor="end" transform="translate(93.5,12) rotate(270) translate(0,3)"
style="font-family: sans-serif; font-size: 10px; fill: #979797; opacity:
1;">5</text><text text-anchor="end" transform="translate(114.5,12) rotate(270)
translate(0,3)" style="font-family: sans-serif; font-size: 10px; fill: #979797;
opacity: 1;">6</text><text text-anchor="end" transform="translate(135.5,12)
rotate(270) translate(0,3)" style="font-family: sans-serif; font-size: 10px;
fill: #979797; opacity: 1;">7</text><text text-anchor="end"
transform="translate(156.5,12) rotate(270) translate(0,3)" style="font-family:
sans-serif; font-size: 10px; fill: #979797; opacity: 1;">8</text></g><g
class="mark-rule role-axis-domain" style="pointer-events: none;"><line
transform="translate(0,0)" x2="168" y2="0" style="fill: none; stroke: #979797;
stroke-width: 0.5; opacity: 1;"></line></g><g class="mark-text role-axis-title"
style="pointer-events: none;"><text text-anchor="middle"
transform="translate(84,31.566666603088382)" style="font-family: sans-serif;
font-size: 11px; font-weight: bold; fill: #979797; opacity:
1;">tick</text></g></g></g></g><g class="mark-group role-axis"><g
transform="translate(0.5,0.5)"><path class="background" d="M0,0h0v0h0Z"
style="pointer-events: none; fill: none;"></path><g><g class="mark-rule
role-axis-tick" style="pointer-events: none;"><line transform="translate(0,200)"
x2="0" y2="0" style="fill: none; stroke: #979797; stroke-width: 0.2; opacity:
1;"></line><line transform="translate(0,169)" x2="0" y2="0" style="fill: none;
stroke: #979797; stroke-width: 0.2; opacity: 1;"></line><line
transform="translate(0,138)" x2="0" y2="0" style="fill: none; stroke: #979797;
stroke-width: 0.2; opacity: 1;"></line><line transform="translate(0,108)" x2="0"
y2="0" style="fill: none; stroke: #979797; stroke-width: 0.2; opacity:
1;"></line><line transform="translate(0,77)" x2="0" y2="0" style="fill: none;
stroke: #979797; stroke-width: 0.2; opacity: 1;"></line><line
transform="translate(0,46)" x2="0" y2="0" style="fill: none; stroke: #979797;
stroke-width: 0.2; opacity: 1;"></line><line transform="translate(0,15)" x2="0"
y2="0" style="fill: none; stroke: #979797; stroke-width: 0.2; opacity:
1;"></line></g><g class="mark-text role-axis-label" style="pointer-events:
none;"><text text-anchor="end" transform="translate(-2,203)" style="font-family:
sans-serif; font-size: 10px; fill: #979797; opacity: 1;">0</text><text
text-anchor="end" transform="translate(-2,172.23076923076923)"
style="font-family: sans-serif; font-size: 10px; fill: #979797; opacity:
1;">2,000,000</text><text text-anchor="end"
transform="translate(-2,141.46153846153845)" style="font-family: sans-serif;
font-size: 10px; fill: #979797; opacity: 1;">4,000,000</text><text
text-anchor="end" transform="translate(-2,110.6923076923077)"
style="font-family: sans-serif; font-size: 10px; fill: #979797; opacity:
1;">6,000,000</text><text text-anchor="end"
transform="translate(-2,79.92307692307692)" style="font-family: sans-serif;
font-size: 10px; fill: #979797; opacity: 1;">8,000,000</text><text
text-anchor="end" transform="translate(-2,49.15384615384613)"
style="font-family: sans-serif; font-size: 10px; fill: #979797; opacity:
1;">10,000,000</text><text text-anchor="end"
transform="translate(-2,18.384615384615387)" style="font-family: sans-serif;
font-size: 10px; fill: #979797; opacity: 1;">12,000,000</text></g><g
class="mark-text role-axis-title" style="pointer-events: none;"><text
text-anchor="middle" transform="translate(-57.06666564941406,100) rotate(-90)
translate(0,-2)" style="font-family: sans-serif; font-size: 11px; font-weight:
bold; fill: #979797; opacity:
1;">rows_done_so_far</text></g></g></g></g></g></g></g></g></svg>